<?xml version="1.0" standalone="no"?>
<!DOCTYPE svg PUBLIC "-//W3C//DTD SVG 20010904//EN"
 "http://www.w3.org/TR/2001/REC-SVG-20010904/DTD/svg10.dtd">
<svg version="1.0" xmlns="http://www.w3.org/2000/svg"
 width="976.000000pt" height="976.000000pt" viewBox="0 0 976.000000 976.000000"
 preserveAspectRatio="xMidYMid meet">
<metadata>
Created by potrace 1.14, written by Peter Selinger 2001-2017
</metadata>
<g transform="translate(0.000000,976.000000) scale(0.100000,-0.100000)"
fill="#000000" stroke="none">
<path d="M2080 9745 c-542 -67 -1037 -337 -1372 -750 -205 -253 -362 -583
-423 -890 -38 -191 -45 -312 -42 -745 2 -376 4 -414 26 -530 109 -582 432
-1066 926 -1385 197 -128 480 -245 678 -280 206 -38 280 -45 437 -45 343 -1
613 59 915 203 219 104 401 235 581 419 132 134 178 191 275 343 102 160 217
422 257 585 49 201 72 441 60 645 -3 66 -4 190 -1 275 23 643 -235 1243 -712
1657 -202 175 -448 317 -696 402 -286 97 -616 132 -909 96z m610 -518 c221
-58 351 -115 516 -225 300 -202 526 -505 629 -840 62 -204 70 -256 70 -482 0
-226 -8 -278 -70 -482 -143 -467 -531 -867 -987 -1019 -223 -74 -283 -83 -518
-84 -237 0 -286 7 -492 70 -484 149 -884 549 -1033 1033 -62 204 -70 256 -70
482 0 226 8 278 70 482 143 467 536 871 988 1018 238 78 316 90 562 86 192 -3
206 -5 335 -39z"/>
<path d="M7200 9745 c-164 -21 -264 -43 -410 -91 -310 -102 -584 -270 -814
-499 -418 -416 -634 -969 -613 -1565 3 -85 2 -209 -1 -275 -12 -204 11 -444
60 -645 55 -224 204 -529 366 -745 64 -86 274 -297 362 -364 184 -141 391
-254 605 -329 129 -46 161 -54 317 -82 217 -39 506 -41 703 -6 50 10 116 21
149 27 32 5 116 30 185 55 321 114 582 276 807 501 300 302 495 675 575 1103
22 116 24 154 26 530 3 539 -13 697 -103 970 -176 535 -551 966 -1059 1215
-360 177 -770 248 -1155 200z m497 -491 c351 -61 643 -213 884 -461 298 -306
452 -686 452 -1113 0 -295 -71 -561 -218 -808 -72 -122 -131 -200 -234 -305
-304 -313 -703 -481 -1141 -481 -438 0 -837 168 -1141 481 -298 306 -453 687
-453 1113 0 438 168 837 481 1141 105 103 183 162 305 234 207 123 403 184
698 219 63 8 277 -4 367 -20z"/>
<path d="M2080 4625 c-620 -77 -1148 -401 -1495 -920 -137 -204 -252 -482
-300 -720 -38 -191 -45 -312 -42 -745 2 -376 4 -414 26 -530 27 -146 42 -201
88 -330 109 -299 271 -557 489 -774 301 -302 683 -501 1109 -578 113 -20 161
-23 370 -23 188 0 259 4 330 18 50 10 116 22 149 28 32 5 116 30 185 55 325
116 576 272 805 500 398 399 611 920 604 1479 -1 99 -1 264 1 366 6 386 -57
699 -203 1004 -204 427 -535 761 -961 970 -360 177 -768 248 -1155 200z m381
-475 c377 -38 697 -185 963 -440 426 -410 585 -984 435 -1575 -41 -163 -152
-388 -265 -537 -68 -90 -206 -230 -298 -300 -285 -220 -615 -332 -976 -332
-438 0 -837 168 -1141 481 -298 306 -452 686 -452 1113 0 439 167 837 480
1141 275 268 595 413 1003 452 75 8 152 7 251 -3z"/>
<path d="M7200 4625 c-468 -58 -891 -261 -1216 -582 -179 -178 -300 -345 -409
-568 -157 -318 -221 -624 -214 -1024 2 -102 2 -267 1 -366 -4 -329 58 -610
201 -910 100 -210 234 -400 403 -569 305 -304 680 -500 1109 -577 113 -21 162
-24 365 -24 202 0 253 3 365 23 425 77 807 276 1109 578 160 160 287 336 392
544 75 150 146 351 169 483 42 232 44 267 44 647 0 510 -18 665 -105 929 -176
535 -553 969 -1059 1216 -361 177 -768 248 -1155 200z m610 -518 c221 -58 351
-115 516 -225 300 -202 526 -505 629 -840 62 -204 70 -256 70 -482 0 -226 -8
-278 -70 -482 -145 -474 -537 -873 -1003 -1023 -228 -73 -266 -79 -502 -80
-237 0 -285 7 -492 70 -473 145 -874 538 -1023 1003 -74 231 -80 264 -80 512
0 246 9 301 84 528 146 438 540 831 974 972 238 78 316 90 562 86 192 -3 206
-5 335 -39z"/>
</g>
</svg>
