<svg xmlns="http://www.w3.org/2000/svg" width="335" height="320" fill="none"><g filter="url(#a)"><mask id="b" fill="#fff"><path fill-rule="evenodd" d="M20 0C8.954 0 0 8.954 0 20v270c0 11.046 8.954 20 20 20h295c11.046 0 20-8.954 20-20V20c0-11.046-8.954-20-20-20H20Zm7.563 44.589c9.368 0 16.962-7.605 16.962-16.986 0-9.382-7.594-16.987-16.962-16.987-9.368 0-16.962 7.605-16.962 16.987 0 9.381 7.594 16.986 16.962 16.986Zm46.646 0c9.368 0 16.962-7.605 16.962-16.986 0-9.382-7.594-16.987-16.962-16.987-9.368 0-16.962 7.605-16.962 16.987 0 9.381 7.594 16.986 16.962 16.986Zm63.607-16.986c0 9.381-7.594 16.986-16.962 16.986-9.367 0-16.962-7.605-16.962-16.986 0-9.382 7.595-16.987 16.962-16.987 9.368 0 16.962 7.605 16.962 16.987ZM167.5 44.589c9.368 0 16.962-7.605 16.962-16.986 0-9.382-7.594-16.987-16.962-16.987-9.368 0-16.962 7.605-16.962 16.987 0 9.381 7.594 16.986 16.962 16.986Zm63.608-16.986c0 9.381-7.595 16.986-16.962 16.986-9.368 0-16.962-7.605-16.962-16.986 0-9.382 7.594-16.987 16.962-16.987 9.367 0 16.962 7.605 16.962 16.987Zm29.683 16.986c9.368 0 16.962-7.605 16.962-16.986 0-9.382-7.594-16.987-16.962-16.987-9.368 0-16.962 7.605-16.962 16.987 0 9.381 7.594 16.986 16.962 16.986Zm63.608-16.986c0 9.381-7.594 16.986-16.962 16.986-9.368 0-16.962-7.605-16.962-16.986 0-9.382 7.594-16.987 16.962-16.987 9.368 0 16.962 7.605 16.962 16.987ZM27.563 91.3c9.368 0 16.962-7.605 16.962-16.986S36.931 57.33 27.563 57.33c-9.368 0-16.962 7.605-16.962 16.986s7.594 16.986 16.962 16.986Zm63.608-16.986c0 9.381-7.594 16.986-16.962 16.986-9.368 0-16.962-7.605-16.962-16.986S64.84 57.33 74.209 57.33c9.368 0 16.962 7.605 16.962 16.986Zm29.683 16.986c9.368 0 16.962-7.605 16.962-16.986s-7.594-16.986-16.962-16.986c-9.367 0-16.962 7.605-16.962 16.986s7.595 16.986 16.962 16.986Zm63.608-16.986c0 9.381-7.594 16.986-16.962 16.986-9.368 0-16.962-7.605-16.962-16.986S158.132 57.33 167.5 57.33c9.368 0 16.962 7.605 16.962 16.986Zm29.684 16.986c9.367 0 16.962-7.605 16.962-16.986s-7.595-16.986-16.962-16.986c-9.368 0-16.962 7.605-16.962 16.986s7.594 16.986 16.962 16.986Zm63.607-16.986c0 9.381-7.594 16.986-16.962 16.986-9.368 0-16.962-7.605-16.962-16.986s7.594-16.986 16.962-16.986c9.368 0 16.962 7.605 16.962 16.986Zm29.684 16.986c9.368 0 16.962-7.605 16.962-16.986s-7.594-16.986-16.962-16.986c-9.368 0-16.962 7.605-16.962 16.986s7.594 16.986 16.962 16.986ZM44.525 121.027c0 9.382-7.594 16.987-16.962 16.987-9.368 0-16.962-7.605-16.962-16.987 0-9.381 7.594-16.986 16.962-16.986 9.368 0 16.962 7.605 16.962 16.986Zm29.684 16.987c9.368 0 16.962-7.605 16.962-16.987 0-9.381-7.594-16.986-16.962-16.986-9.368 0-16.962 7.605-16.962 16.986 0 9.382 7.594 16.987 16.962 16.987Zm63.607-16.987c0 9.382-7.594 16.987-16.962 16.987-9.367 0-16.962-7.605-16.962-16.987 0-9.381 7.595-16.986 16.962-16.986 9.368 0 16.962 7.605 16.962 16.986Zm29.684 16.987c9.368 0 16.962-7.605 16.962-16.987 0-9.381-7.594-16.986-16.962-16.986-9.368 0-16.962 7.605-16.962 16.986 0 9.382 7.594 16.987 16.962 16.987Zm63.608-16.987c0 9.382-7.595 16.987-16.962 16.987-9.368 0-16.962-7.605-16.962-16.987 0-9.381 7.594-16.986 16.962-16.986 9.367 0 16.962 7.605 16.962 16.986Zm29.683 16.987c9.368 0 16.962-7.605 16.962-16.987 0-9.381-7.594-16.986-16.962-16.986-9.368 0-16.962 7.605-16.962 16.986 0 9.382 7.594 16.987 16.962 16.987Zm63.608-16.987c0 9.382-7.594 16.987-16.962 16.987-9.368 0-16.962-7.605-16.962-16.987 0-9.381 7.594-16.986 16.962-16.986 9.368 0 16.962 7.605 16.962 16.986ZM27.563 184.726c9.368 0 16.962-7.605 16.962-16.986 0-9.382-7.594-16.987-16.962-16.987-9.368 0-16.962 7.605-16.962 16.987 0 9.381 7.594 16.986 16.962 16.986Zm63.608-16.986c0 9.381-7.594 16.986-16.962 16.986-9.368 0-16.962-7.605-16.962-16.986 0-9.382 7.594-16.987 16.962-16.987 9.368 0 16.962 7.605 16.962 16.987Zm29.683 16.986c9.368 0 16.962-7.605 16.962-16.986 0-9.382-7.594-16.987-16.962-16.987-9.367 0-16.962 7.605-16.962 16.987 0 9.381 7.595 16.986 16.962 16.986Zm63.608-16.986c0 9.381-7.594 16.986-16.962 16.986-9.368 0-16.962-7.605-16.962-16.986 0-9.382 7.594-16.987 16.962-16.987 9.368 0 16.962 7.605 16.962 16.987Zm29.684 16.986c9.367 0 16.962-7.605 16.962-16.986 0-9.382-7.595-16.987-16.962-16.987-9.368 0-16.962 7.605-16.962 16.987 0 9.381 7.594 16.986 16.962 16.986Zm63.607-16.986c0 9.381-7.594 16.986-16.962 16.986-9.368 0-16.962-7.605-16.962-16.986 0-9.382 7.594-16.987 16.962-16.987 9.368 0 16.962 7.605 16.962 16.987Zm29.684 16.986c9.368 0 16.962-7.605 16.962-16.986 0-9.382-7.594-16.987-16.962-16.987-9.368 0-16.962 7.605-16.962 16.987 0 9.381 7.594 16.986 16.962 16.986ZM44.525 214.452c0 9.381-7.594 16.986-16.962 16.986-9.368 0-16.962-7.605-16.962-16.986s7.594-16.986 16.962-16.986c9.368 0 16.962 7.605 16.962 16.986Zm29.684 16.986c9.368 0 16.962-7.605 16.962-16.986s-7.594-16.986-16.962-16.986c-9.368 0-16.962 7.605-16.962 16.986s7.594 16.986 16.962 16.986Zm63.607-16.986c0 9.381-7.594 16.986-16.962 16.986-9.367 0-16.962-7.605-16.962-16.986s7.595-16.986 16.962-16.986c9.368 0 16.962 7.605 16.962 16.986Zm29.684 16.986c9.368 0 16.962-7.605 16.962-16.986s-7.594-16.986-16.962-16.986c-9.368 0-16.962 7.605-16.962 16.986s7.594 16.986 16.962 16.986Zm63.608-16.986c0 9.381-7.595 16.986-16.962 16.986-9.368 0-16.962-7.605-16.962-16.986s7.594-16.986 16.962-16.986c9.367 0 16.962 7.605 16.962 16.986Zm29.683 16.986c9.368 0 16.962-7.605 16.962-16.986s-7.594-16.986-16.962-16.986c-9.368 0-16.962 7.605-16.962 16.986s7.594 16.986 16.962 16.986Zm63.608-16.986c0 9.381-7.594 16.986-16.962 16.986-9.368 0-16.962-7.605-16.962-16.986s7.594-16.986 16.962-16.986c9.368 0 16.962 7.605 16.962 16.986ZM27.563 278.151c9.368 0 16.962-7.605 16.962-16.987 0-9.381-7.594-16.986-16.962-16.986-9.368 0-16.962 7.605-16.962 16.986 0 9.382 7.594 16.987 16.962 16.987Zm63.608-16.987c0 9.382-7.594 16.987-16.962 16.987-9.368 0-16.962-7.605-16.962-16.987 0-9.381 7.594-16.986 16.962-16.986 9.368 0 16.962 7.605 16.962 16.986Zm93.291 0c0 9.382-7.594 16.987-16.962 16.987-9.368 0-16.962-7.605-16.962-16.987 0-9.381 7.594-16.986 16.962-16.986 9.368 0 16.962 7.605 16.962 16.986Zm-63.608 16.987c9.368 0 16.962-7.605 16.962-16.987 0-9.381-7.594-16.986-16.962-16.986-9.367 0-16.962 7.605-16.962 16.986 0 9.382 7.595 16.987 16.962 16.987Zm110.254-16.987c0 9.382-7.595 16.987-16.962 16.987-9.368 0-16.962-7.605-16.962-16.987 0-9.381 7.594-16.986 16.962-16.986 9.367 0 16.962 7.605 16.962 16.986Zm29.683 16.987c9.368 0 16.962-7.605 16.962-16.987 0-9.381-7.594-16.986-16.962-16.986-9.368 0-16.962 7.605-16.962 16.986 0 9.382 7.594 16.987 16.962 16.987Zm63.608-16.987c0 9.382-7.594 16.987-16.962 16.987-9.368 0-16.962-7.605-16.962-16.987 0-9.381 7.594-16.986 16.962-16.986 9.368 0 16.962 7.605 16.962 16.986Z" clip-rule="evenodd"/></mask><path fill="#000" fill-rule="evenodd" d="M20 0C8.954 0 0 8.954 0 20v270c0 11.046 8.954 20 20 20h295c11.046 0 20-8.954 20-20V20c0-11.046-8.954-20-20-20H20Zm7.563 44.589c9.368 0 16.962-7.605 16.962-16.986 0-9.382-7.594-16.987-16.962-16.987-9.368 0-16.962 7.605-16.962 16.987 0 9.381 7.594 16.986 16.962 16.986Zm46.646 0c9.368 0 16.962-7.605 16.962-16.986 0-9.382-7.594-16.987-16.962-16.987-9.368 0-16.962 7.605-16.962 16.987 0 9.381 7.594 16.986 16.962 16.986Zm63.607-16.986c0 9.381-7.594 16.986-16.962 16.986-9.367 0-16.962-7.605-16.962-16.986 0-9.382 7.595-16.987 16.962-16.987 9.368 0 16.962 7.605 16.962 16.987ZM167.5 44.589c9.368 0 16.962-7.605 16.962-16.986 0-9.382-7.594-16.987-16.962-16.987-9.368 0-16.962 7.605-16.962 16.987 0 9.381 7.594 16.986 16.962 16.986Zm63.608-16.986c0 9.381-7.595 16.986-16.962 16.986-9.368 0-16.962-7.605-16.962-16.986 0-9.382 7.594-16.987 16.962-16.987 9.367 0 16.962 7.605 16.962 16.987Zm29.683 16.986c9.368 0 16.962-7.605 16.962-16.986 0-9.382-7.594-16.987-16.962-16.987-9.368 0-16.962 7.605-16.962 16.987 0 9.381 7.594 16.986 16.962 16.986Zm63.608-16.986c0 9.381-7.594 16.986-16.962 16.986-9.368 0-16.962-7.605-16.962-16.986 0-9.382 7.594-16.987 16.962-16.987 9.368 0 16.962 7.605 16.962 16.987ZM27.563 91.3c9.368 0 16.962-7.605 16.962-16.986S36.931 57.33 27.563 57.33c-9.368 0-16.962 7.605-16.962 16.986s7.594 16.986 16.962 16.986Zm63.608-16.986c0 9.381-7.594 16.986-16.962 16.986-9.368 0-16.962-7.605-16.962-16.986S64.84 57.33 74.209 57.33c9.368 0 16.962 7.605 16.962 16.986Zm29.683 16.986c9.368 0 16.962-7.605 16.962-16.986s-7.594-16.986-16.962-16.986c-9.367 0-16.962 7.605-16.962 16.986s7.595 16.986 16.962 16.986Zm63.608-16.986c0 9.381-7.594 16.986-16.962 16.986-9.368 0-16.962-7.605-16.962-16.986S158.132 57.33 167.5 57.33c9.368 0 16.962 7.605 16.962 16.986Zm29.684 16.986c9.367 0 16.962-7.605 16.962-16.986s-7.595-16.986-16.962-16.986c-9.368 0-16.962 7.605-16.962 16.986s7.594 16.986 16.962 16.986Zm63.607-16.986c0 9.381-7.594 16.986-16.962 16.986-9.368 0-16.962-7.605-16.962-16.986s7.594-16.986 16.962-16.986c9.368 0 16.962 7.605 16.962 16.986Zm29.684 16.986c9.368 0 16.962-7.605 16.962-16.986s-7.594-16.986-16.962-16.986c-9.368 0-16.962 7.605-16.962 16.986s7.594 16.986 16.962 16.986ZM44.525 121.027c0 9.382-7.594 16.987-16.962 16.987-9.368 0-16.962-7.605-16.962-16.987 0-9.381 7.594-16.986 16.962-16.986 9.368 0 16.962 7.605 16.962 16.986Zm29.684 16.987c9.368 0 16.962-7.605 16.962-16.987 0-9.381-7.594-16.986-16.962-16.986-9.368 0-16.962 7.605-16.962 16.986 0 9.382 7.594 16.987 16.962 16.987Zm63.607-16.987c0 9.382-7.594 16.987-16.962 16.987-9.367 0-16.962-7.605-16.962-16.987 0-9.381 7.595-16.986 16.962-16.986 9.368 0 16.962 7.605 16.962 16.986Zm29.684 16.987c9.368 0 16.962-7.605 16.962-16.987 0-9.381-7.594-16.986-16.962-16.986-9.368 0-16.962 7.605-16.962 16.986 0 9.382 7.594 16.987 16.962 16.987Zm63.608-16.987c0 9.382-7.595 16.987-16.962 16.987-9.368 0-16.962-7.605-16.962-16.987 0-9.381 7.594-16.986 16.962-16.986 9.367 0 16.962 7.605 16.962 16.986Zm29.683 16.987c9.368 0 16.962-7.605 16.962-16.987 0-9.381-7.594-16.986-16.962-16.986-9.368 0-16.962 7.605-16.962 16.986 0 9.382 7.594 16.987 16.962 16.987Zm63.608-16.987c0 9.382-7.594 16.987-16.962 16.987-9.368 0-16.962-7.605-16.962-16.987 0-9.381 7.594-16.986 16.962-16.986 9.368 0 16.962 7.605 16.962 16.986ZM27.563 184.726c9.368 0 16.962-7.605 16.962-16.986 0-9.382-7.594-16.987-16.962-16.987-9.368 0-16.962 7.605-16.962 16.987 0 9.381 7.594 16.986 16.962 16.986Zm63.608-16.986c0 9.381-7.594 16.986-16.962 16.986-9.368 0-16.962-7.605-16.962-16.986 0-9.382 7.594-16.987 16.962-16.987 9.368 0 16.962 7.605 16.962 16.987Zm29.683 16.986c9.368 0 16.962-7.605 16.962-16.986 0-9.382-7.594-16.987-16.962-16.987-9.367 0-16.962 7.605-16.962 16.987 0 9.381 7.595 16.986 16.962 16.986Zm63.608-16.986c0 9.381-7.594 16.986-16.962 16.986-9.368 0-16.962-7.605-16.962-16.986 0-9.382 7.594-16.987 16.962-16.987 9.368 0 16.962 7.605 16.962 16.987Zm29.684 16.986c9.367 0 16.962-7.605 16.962-16.986 0-9.382-7.595-16.987-16.962-16.987-9.368 0-16.962 7.605-16.962 16.987 0 9.381 7.594 16.986 16.962 16.986Zm63.607-16.986c0 9.381-7.594 16.986-16.962 16.986-9.368 0-16.962-7.605-16.962-16.986 0-9.382 7.594-16.987 16.962-16.987 9.368 0 16.962 7.605 16.962 16.987Zm29.684 16.986c9.368 0 16.962-7.605 16.962-16.986 0-9.382-7.594-16.987-16.962-16.987-9.368 0-16.962 7.605-16.962 16.987 0 9.381 7.594 16.986 16.962 16.986ZM44.525 214.452c0 9.381-7.594 16.986-16.962 16.986-9.368 0-16.962-7.605-16.962-16.986s7.594-16.986 16.962-16.986c9.368 0 16.962 7.605 16.962 16.986Zm29.684 16.986c9.368 0 16.962-7.605 16.962-16.986s-7.594-16.986-16.962-16.986c-9.368 0-16.962 7.605-16.962 16.986s7.594 16.986 16.962 16.986Zm63.607-16.986c0 9.381-7.594 16.986-16.962 16.986-9.367 0-16.962-7.605-16.962-16.986s7.595-16.986 16.962-16.986c9.368 0 16.962 7.605 16.962 16.986Zm29.684 16.986c9.368 0 16.962-7.605 16.962-16.986s-7.594-16.986-16.962-16.986c-9.368 0-16.962 7.605-16.962 16.986s7.594 16.986 16.962 16.986Zm63.608-16.986c0 9.381-7.595 16.986-16.962 16.986-9.368 0-16.962-7.605-16.962-16.986s7.594-16.986 16.962-16.986c9.367 0 16.962 7.605 16.962 16.986Zm29.683 16.986c9.368 0 16.962-7.605 16.962-16.986s-7.594-16.986-16.962-16.986c-9.368 0-16.962 7.605-16.962 16.986s7.594 16.986 16.962 16.986Zm63.608-16.986c0 9.381-7.594 16.986-16.962 16.986-9.368 0-16.962-7.605-16.962-16.986s7.594-16.986 16.962-16.986c9.368 0 16.962 7.605 16.962 16.986ZM27.563 278.151c9.368 0 16.962-7.605 16.962-16.987 0-9.381-7.594-16.986-16.962-16.986-9.368 0-16.962 7.605-16.962 16.986 0 9.382 7.594 16.987 16.962 16.987Zm63.608-16.987c0 9.382-7.594 16.987-16.962 16.987-9.368 0-16.962-7.605-16.962-16.987 0-9.381 7.594-16.986 16.962-16.986 9.368 0 16.962 7.605 16.962 16.986Zm93.291 0c0 9.382-7.594 16.987-16.962 16.987-9.368 0-16.962-7.605-16.962-16.987 0-9.381 7.594-16.986 16.962-16.986 9.368 0 16.962 7.605 16.962 16.986Zm-63.608 16.987c9.368 0 16.962-7.605 16.962-16.987 0-9.381-7.594-16.986-16.962-16.986-9.367 0-16.962 7.605-16.962 16.986 0 9.382 7.595 16.987 16.962 16.987Zm110.254-16.987c0 9.382-7.595 16.987-16.962 16.987-9.368 0-16.962-7.605-16.962-16.987 0-9.381 7.594-16.986 16.962-16.986 9.367 0 16.962 7.605 16.962 16.986Zm29.683 16.987c9.368 0 16.962-7.605 16.962-16.987 0-9.381-7.594-16.986-16.962-16.986-9.368 0-16.962 7.605-16.962 16.986 0 9.382 7.594 16.987 16.962 16.987Zm63.608-16.987c0 9.382-7.594 16.987-16.962 16.987-9.368 0-16.962-7.605-16.962-16.987 0-9.381 7.594-16.986 16.962-16.986 9.368 0 16.962 7.605 16.962 16.986Z" clip-rule="evenodd"/><path fill="#000" d="M3 20c0-9.389 7.611-17 17-17v-6C7.297-3-3 7.297-3 20h6Zm0 270V20h-6v270h6Zm17 17c-9.389 0-17-7.611-17-17h-6c0 12.703 10.297 23 23 23v-6Zm295 0H20v6h295v-6Zm17-17c0 9.389-7.611 17-17 17v6c12.703 0 23-10.297 23-23h-6Zm0-270v270h6V20h-6ZM315 3c9.389 0 17 7.611 17 17h6c0-12.703-10.297-23-23-23v6ZM20 3h295v-6H20v6Zm21.525 24.603c0 7.728-6.255 13.986-13.962 13.986v6c11.03 0 19.962-8.952 19.962-19.986h-6ZM27.563 13.616c7.707 0 13.962 6.258 13.962 13.987h6c0-11.034-8.933-19.987-19.962-19.987v6ZM13.601 27.603c0-7.729 6.255-13.987 13.962-13.987v-6c-11.028 0-19.962 8.953-19.962 19.987h6Zm13.962 13.986c-7.707 0-13.962-6.258-13.962-13.986h-6c0 11.034 8.934 19.986 19.962 19.986v-6Zm60.608-13.986c0 7.728-6.255 13.986-13.962 13.986v6c11.029 0 19.962-8.952 19.962-19.986h-6ZM74.209 13.616c7.707 0 13.962 6.258 13.962 13.987h6c0-11.034-8.933-19.987-19.962-19.987v6ZM60.247 27.603c0-7.729 6.255-13.987 13.962-13.987v-6c-11.029 0-19.962 8.953-19.962 19.987h6Zm13.962 13.986c-7.707 0-13.962-6.258-13.962-13.986h-6c0 11.034 8.933 19.986 19.962 19.986v-6Zm46.645 6c11.029 0 19.962-8.952 19.962-19.986h-6c0 7.728-6.255 13.986-13.962 13.986v6Zm-19.962-19.986c0 11.034 8.934 19.986 19.962 19.986v-6c-7.707 0-13.962-6.258-13.962-13.986h-6Zm19.962-19.987c-11.028 0-19.962 8.953-19.962 19.987h6c0-7.729 6.255-13.987 13.962-13.987v-6Zm19.962 19.987c0-11.034-8.933-19.987-19.962-19.987v6c7.707 0 13.962 6.258 13.962 13.987h6Zm40.646 0c0 7.728-6.255 13.986-13.962 13.986v6c11.029 0 19.962-8.952 19.962-19.986h-6ZM167.5 13.616c7.707 0 13.962 6.258 13.962 13.987h6c0-11.034-8.933-19.987-19.962-19.987v6Zm-13.962 13.987c0-7.729 6.255-13.987 13.962-13.987v-6c-11.029 0-19.962 8.953-19.962 19.987h6ZM167.5 41.589c-7.707 0-13.962-6.258-13.962-13.986h-6c0 11.034 8.933 19.986 19.962 19.986v-6Zm46.646 6c11.028 0 19.962-8.952 19.962-19.986h-6c0 7.728-6.255 13.986-13.962 13.986v6Zm-19.962-19.986c0 11.034 8.933 19.986 19.962 19.986v-6c-7.707 0-13.962-6.258-13.962-13.986h-6Zm19.962-19.987c-11.029 0-19.962 8.953-19.962 19.987h6c0-7.729 6.255-13.987 13.962-13.987v-6Zm19.962 19.987c0-11.034-8.934-19.987-19.962-19.987v6c7.707 0 13.962 6.258 13.962 13.987h6Zm40.645 0c0 7.728-6.255 13.986-13.962 13.986v6c11.029 0 19.962-8.952 19.962-19.986h-6Zm-13.962-13.987c7.707 0 13.962 6.258 13.962 13.987h6c0-11.034-8.933-19.987-19.962-19.987v6Zm-13.962 13.987c0-7.729 6.255-13.987 13.962-13.987v-6c-11.029 0-19.962 8.953-19.962 19.987h6Zm13.962 13.986c-7.707 0-13.962-6.258-13.962-13.986h-6c0 11.034 8.933 19.986 19.962 19.986v-6Zm46.646 6c11.028 0 19.962-8.952 19.962-19.986h-6c0 7.728-6.255 13.986-13.962 13.986v6Zm-19.962-19.986c0 11.034 8.933 19.986 19.962 19.986v-6c-7.707 0-13.962-6.258-13.962-13.986h-6Zm19.962-19.987c-11.029 0-19.962 8.953-19.962 19.987h6c0-7.729 6.255-13.987 13.962-13.987v-6Zm19.962 19.987c0-11.034-8.934-19.987-19.962-19.987v6c7.707 0 13.962 6.258 13.962 13.987h6ZM41.525 74.315c0 7.728-6.255 13.986-13.962 13.986v6c11.03 0 19.962-8.952 19.962-19.986h-6ZM27.563 60.33c7.707 0 13.962 6.258 13.962 13.986h6c0-11.034-8.933-19.986-19.962-19.986v6ZM13.601 74.315c0-7.728 6.255-13.986 13.962-13.986v-6c-11.028 0-19.962 8.952-19.962 19.986h6Zm13.962 13.986c-7.707 0-13.962-6.258-13.962-13.986h-6c0 11.034 8.934 19.986 19.962 19.986v-6Zm46.646 6c11.029 0 19.962-8.952 19.962-19.986h-6c0 7.728-6.255 13.986-13.962 13.986v6ZM54.247 74.315c0 11.034 8.933 19.986 19.962 19.986v-6c-7.707 0-13.962-6.258-13.962-13.986h-6ZM74.209 54.33c-11.029 0-19.962 8.952-19.962 19.986h6c0-7.728 6.255-13.986 13.962-13.986v-6ZM94.17 74.315c0-11.034-8.933-19.986-19.962-19.986v6c7.707 0 13.962 6.258 13.962 13.986h6Zm40.645 0c0 7.728-6.255 13.986-13.962 13.986v6c11.029 0 19.962-8.952 19.962-19.986h-6ZM120.854 60.33c7.707 0 13.962 6.258 13.962 13.986h6c0-11.034-8.933-19.986-19.962-19.986v6Zm-13.962 13.986c0-7.728 6.255-13.986 13.962-13.986v-6c-11.028 0-19.962 8.952-19.962 19.986h6Zm13.962 13.986c-7.707 0-13.962-6.258-13.962-13.986h-6c0 11.034 8.934 19.986 19.962 19.986v-6Zm46.646 6c11.029 0 19.962-8.952 19.962-19.986h-6c0 7.728-6.255 13.986-13.962 13.986v6Zm-19.962-19.986c0 11.034 8.933 19.986 19.962 19.986v-6c-7.707 0-13.962-6.258-13.962-13.986h-6ZM167.5 54.33c-11.029 0-19.962 8.952-19.962 19.986h6c0-7.728 6.255-13.986 13.962-13.986v-6Zm19.962 19.986c0-11.034-8.933-19.986-19.962-19.986v6c7.707 0 13.962 6.258 13.962 13.986h6Zm40.646 0c0 7.728-6.255 13.986-13.962 13.986v6c11.028 0 19.962-8.952 19.962-19.986h-6ZM214.146 60.33c7.707 0 13.962 6.258 13.962 13.986h6c0-11.034-8.934-19.986-19.962-19.986v6Zm-13.962 13.986c0-7.728 6.255-13.986 13.962-13.986v-6c-11.029 0-19.962 8.952-19.962 19.986h6Zm13.962 13.986c-7.707 0-13.962-6.258-13.962-13.986h-6c0 11.034 8.933 19.986 19.962 19.986v-6Zm46.645 6c11.029 0 19.962-8.952 19.962-19.986h-6c0 7.728-6.255 13.986-13.962 13.986v6Zm-19.962-19.986c0 11.034 8.933 19.986 19.962 19.986v-6c-7.707 0-13.962-6.258-13.962-13.986h-6Zm19.962-19.986c-11.029 0-19.962 8.952-19.962 19.986h6c0-7.728 6.255-13.986 13.962-13.986v-6Zm19.962 19.986c0-11.034-8.933-19.986-19.962-19.986v6c7.707 0 13.962 6.258 13.962 13.986h6Zm40.646 0c0 7.728-6.255 13.986-13.962 13.986v6c11.028 0 19.962-8.952 19.962-19.986h-6ZM307.437 60.33c7.707 0 13.962 6.258 13.962 13.986h6c0-11.034-8.934-19.986-19.962-19.986v6Zm-13.962 13.986c0-7.728 6.255-13.986 13.962-13.986v-6c-11.029 0-19.962 8.952-19.962 19.986h6Zm13.962 13.986c-7.707 0-13.962-6.258-13.962-13.986h-6c0 11.034 8.933 19.986 19.962 19.986v-6ZM27.563 141.014c11.03 0 19.962-8.953 19.962-19.987h-6c0 7.729-6.255 13.987-13.962 13.987v6ZM7.601 121.027c0 11.034 8.934 19.987 19.962 19.987v-6c-7.707 0-13.962-6.258-13.962-13.987h-6Zm19.962-19.986c-11.028 0-19.962 8.952-19.962 19.986h6c0-7.728 6.255-13.986 13.962-13.986v-6Zm19.962 19.986c0-11.034-8.933-19.986-19.962-19.986v6c7.707 0 13.962 6.258 13.962 13.986h6Zm40.646 0c0 7.729-6.255 13.987-13.962 13.987v6c11.029 0 19.962-8.953 19.962-19.987h-6Zm-13.962-13.986c7.707 0 13.962 6.258 13.962 13.986h6c0-11.034-8.933-19.986-19.962-19.986v6Zm-13.962 13.986c0-7.728 6.255-13.986 13.962-13.986v-6c-11.029 0-19.962 8.952-19.962 19.986h6Zm13.962 13.987c-7.707 0-13.962-6.258-13.962-13.987h-6c0 11.034 8.933 19.987 19.962 19.987v-6Zm46.645 6c11.029 0 19.962-8.953 19.962-19.987h-6c0 7.729-6.255 13.987-13.962 13.987v6Zm-19.962-19.987c0 11.034 8.934 19.987 19.962 19.987v-6c-7.707 0-13.962-6.258-13.962-13.987h-6Zm19.962-19.986c-11.028 0-19.962 8.952-19.962 19.986h6c0-7.728 6.255-13.986 13.962-13.986v-6Zm19.962 19.986c0-11.034-8.933-19.986-19.962-19.986v6c7.707 0 13.962 6.258 13.962 13.986h6Zm40.646 0c0 7.729-6.255 13.987-13.962 13.987v6c11.029 0 19.962-8.953 19.962-19.987h-6ZM167.5 107.041c7.707 0 13.962 6.258 13.962 13.986h6c0-11.034-8.933-19.986-19.962-19.986v6Zm-13.962 13.986c0-7.728 6.255-13.986 13.962-13.986v-6c-11.029 0-19.962 8.952-19.962 19.986h6Zm13.962 13.987c-7.707 0-13.962-6.258-13.962-13.987h-6c0 11.034 8.933 19.987 19.962 19.987v-6Zm46.646 6c11.028 0 19.962-8.953 19.962-19.987h-6c0 7.729-6.255 13.987-13.962 13.987v6Zm-19.962-19.987c0 11.034 8.933 19.987 19.962 19.987v-6c-7.707 0-13.962-6.258-13.962-13.987h-6Zm19.962-19.986c-11.029 0-19.962 8.952-19.962 19.986h6c0-7.728 6.255-13.986 13.962-13.986v-6Zm19.962 19.986c0-11.034-8.934-19.986-19.962-19.986v6c7.707 0 13.962 6.258 13.962 13.986h6Zm40.645 0c0 7.729-6.255 13.987-13.962 13.987v6c11.029 0 19.962-8.953 19.962-19.987h-6Zm-13.962-13.986c7.707 0 13.962 6.258 13.962 13.986h6c0-11.034-8.933-19.986-19.962-19.986v6Zm-13.962 13.986c0-7.728 6.255-13.986 13.962-13.986v-6c-11.029 0-19.962 8.952-19.962 19.986h6Zm13.962 13.987c-7.707 0-13.962-6.258-13.962-13.987h-6c0 11.034 8.933 19.987 19.962 19.987v-6Zm46.646 6c11.028 0 19.962-8.953 19.962-19.987h-6c0 7.729-6.255 13.987-13.962 13.987v6Zm-19.962-19.987c0 11.034 8.933 19.987 19.962 19.987v-6c-7.707 0-13.962-6.258-13.962-13.987h-6Zm19.962-19.986c-11.029 0-19.962 8.952-19.962 19.986h6c0-7.728 6.255-13.986 13.962-13.986v-6Zm19.962 19.986c0-11.034-8.934-19.986-19.962-19.986v6c7.707 0 13.962 6.258 13.962 13.986h6ZM41.525 167.74c0 7.728-6.255 13.986-13.962 13.986v6c11.03 0 19.962-8.952 19.962-19.986h-6Zm-13.962-13.987c7.707 0 13.962 6.258 13.962 13.987h6c0-11.034-8.933-19.987-19.962-19.987v6ZM13.601 167.74c0-7.729 6.255-13.987 13.962-13.987v-6c-11.028 0-19.962 8.953-19.962 19.987h6Zm13.962 13.986c-7.707 0-13.962-6.258-13.962-13.986h-6c0 11.034 8.934 19.986 19.962 19.986v-6Zm46.646 6c11.029 0 19.962-8.952 19.962-19.986h-6c0 7.728-6.255 13.986-13.962 13.986v6ZM54.247 167.74c0 11.034 8.933 19.986 19.962 19.986v-6c-7.707 0-13.962-6.258-13.962-13.986h-6Zm19.962-19.987c-11.029 0-19.962 8.953-19.962 19.987h6c0-7.729 6.255-13.987 13.962-13.987v-6ZM94.17 167.74c0-11.034-8.933-19.987-19.962-19.987v6c7.707 0 13.962 6.258 13.962 13.987h6Zm40.645 0c0 7.728-6.255 13.986-13.962 13.986v6c11.029 0 19.962-8.952 19.962-19.986h-6Zm-13.962-13.987c7.707 0 13.962 6.258 13.962 13.987h6c0-11.034-8.933-19.987-19.962-19.987v6Zm-13.962 13.987c0-7.729 6.255-13.987 13.962-13.987v-6c-11.028 0-19.962 8.953-19.962 19.987h6Zm13.962 13.986c-7.707 0-13.962-6.258-13.962-13.986h-6c0 11.034 8.934 19.986 19.962 19.986v-6Zm46.646 6c11.029 0 19.962-8.952 19.962-19.986h-6c0 7.728-6.255 13.986-13.962 13.986v6Zm-19.962-19.986c0 11.034 8.933 19.986 19.962 19.986v-6c-7.707 0-13.962-6.258-13.962-13.986h-6Zm19.962-19.987c-11.029 0-19.962 8.953-19.962 19.987h6c0-7.729 6.255-13.987 13.962-13.987v-6Zm19.962 19.987c0-11.034-8.933-19.987-19.962-19.987v6c7.707 0 13.962 6.258 13.962 13.987h6Zm40.646 0c0 7.728-6.255 13.986-13.962 13.986v6c11.028 0 19.962-8.952 19.962-19.986h-6Zm-13.962-13.987c7.707 0 13.962 6.258 13.962 13.987h6c0-11.034-8.934-19.987-19.962-19.987v6Zm-13.962 13.987c0-7.729 6.255-13.987 13.962-13.987v-6c-11.029 0-19.962 8.953-19.962 19.987h6Zm13.962 13.986c-7.707 0-13.962-6.258-13.962-13.986h-6c0 11.034 8.933 19.986 19.962 19.986v-6Zm46.645 6c11.029 0 19.962-8.952 19.962-19.986h-6c0 7.728-6.255 13.986-13.962 13.986v6Zm-19.962-19.986c0 11.034 8.933 19.986 19.962 19.986v-6c-7.707 0-13.962-6.258-13.962-13.986h-6Zm19.962-19.987c-11.029 0-19.962 8.953-19.962 19.987h6c0-7.729 6.255-13.987 13.962-13.987v-6Zm19.962 19.987c0-11.034-8.933-19.987-19.962-19.987v6c7.707 0 13.962 6.258 13.962 13.987h6Zm40.646 0c0 7.728-6.255 13.986-13.962 13.986v6c11.028 0 19.962-8.952 19.962-19.986h-6Zm-13.962-13.987c7.707 0 13.962 6.258 13.962 13.987h6c0-11.034-8.934-19.987-19.962-19.987v6Zm-13.962 13.987c0-7.729 6.255-13.987 13.962-13.987v-6c-11.029 0-19.962 8.953-19.962 19.987h6Zm13.962 13.986c-7.707 0-13.962-6.258-13.962-13.986h-6c0 11.034 8.933 19.986 19.962 19.986v-6ZM27.563 234.438c11.03 0 19.962-8.952 19.962-19.986h-6c0 7.729-6.255 13.986-13.962 13.986v6ZM7.601 214.452c0 11.034 8.934 19.986 19.962 19.986v-6c-7.707 0-13.962-6.257-13.962-13.986h-6Zm19.962-19.986c-11.028 0-19.962 8.952-19.962 19.986h6c0-7.728 6.255-13.986 13.962-13.986v-6Zm19.962 19.986c0-11.034-8.933-19.986-19.962-19.986v6c7.707 0 13.962 6.258 13.962 13.986h6Zm40.646 0c0 7.729-6.255 13.986-13.962 13.986v6c11.029 0 19.962-8.952 19.962-19.986h-6Zm-13.962-13.986c7.707 0 13.962 6.258 13.962 13.986h6c0-11.034-8.933-19.986-19.962-19.986v6Zm-13.962 13.986c0-7.728 6.255-13.986 13.962-13.986v-6c-11.029 0-19.962 8.952-19.962 19.986h6Zm13.962 13.986c-7.707 0-13.962-6.257-13.962-13.986h-6c0 11.034 8.933 19.986 19.962 19.986v-6Zm46.645 6c11.029 0 19.962-8.952 19.962-19.986h-6c0 7.729-6.255 13.986-13.962 13.986v6Zm-19.962-19.986c0 11.034 8.934 19.986 19.962 19.986v-6c-7.707 0-13.962-6.257-13.962-13.986h-6Zm19.962-19.986c-11.028 0-19.962 8.952-19.962 19.986h6c0-7.728 6.255-13.986 13.962-13.986v-6Zm19.962 19.986c0-11.034-8.933-19.986-19.962-19.986v6c7.707 0 13.962 6.258 13.962 13.986h6Zm40.646 0c0 7.729-6.255 13.986-13.962 13.986v6c11.029 0 19.962-8.952 19.962-19.986h-6ZM167.5 200.466c7.707 0 13.962 6.258 13.962 13.986h6c0-11.034-8.933-19.986-19.962-19.986v6Zm-13.962 13.986c0-7.728 6.255-13.986 13.962-13.986v-6c-11.029 0-19.962 8.952-19.962 19.986h6Zm13.962 13.986c-7.707 0-13.962-6.257-13.962-13.986h-6c0 11.034 8.933 19.986 19.962 19.986v-6Zm46.646 6c11.028 0 19.962-8.952 19.962-19.986h-6c0 7.729-6.255 13.986-13.962 13.986v6Zm-19.962-19.986c0 11.034 8.933 19.986 19.962 19.986v-6c-7.707 0-13.962-6.257-13.962-13.986h-6Zm19.962-19.986c-11.029 0-19.962 8.952-19.962 19.986h6c0-7.728 6.255-13.986 13.962-13.986v-6Zm19.962 19.986c0-11.034-8.934-19.986-19.962-19.986v6c7.707 0 13.962 6.258 13.962 13.986h6Zm40.645 0c0 7.729-6.255 13.986-13.962 13.986v6c11.029 0 19.962-8.952 19.962-19.986h-6Zm-13.962-13.986c7.707 0 13.962 6.258 13.962 13.986h6c0-11.034-8.933-19.986-19.962-19.986v6Zm-13.962 13.986c0-7.728 6.255-13.986 13.962-13.986v-6c-11.029 0-19.962 8.952-19.962 19.986h6Zm13.962 13.986c-7.707 0-13.962-6.257-13.962-13.986h-6c0 11.034 8.933 19.986 19.962 19.986v-6Zm46.646 6c11.028 0 19.962-8.952 19.962-19.986h-6c0 7.729-6.255 13.986-13.962 13.986v6Zm-19.962-19.986c0 11.034 8.933 19.986 19.962 19.986v-6c-7.707 0-13.962-6.257-13.962-13.986h-6Zm19.962-19.986c-11.029 0-19.962 8.952-19.962 19.986h6c0-7.728 6.255-13.986 13.962-13.986v-6Zm19.962 19.986c0-11.034-8.934-19.986-19.962-19.986v6c7.707 0 13.962 6.258 13.962 13.986h6ZM41.525 261.164c0 7.729-6.255 13.987-13.962 13.987v6c11.03 0 19.962-8.953 19.962-19.987h-6Zm-13.962-13.986c7.707 0 13.962 6.258 13.962 13.986h6c0-11.034-8.933-19.986-19.962-19.986v6Zm-13.962 13.986c0-7.728 6.255-13.986 13.962-13.986v-6c-11.028 0-19.962 8.952-19.962 19.986h6Zm13.962 13.987c-7.707 0-13.962-6.258-13.962-13.987h-6c0 11.034 8.934 19.987 19.962 19.987v-6Zm46.646 6c11.029 0 19.962-8.953 19.962-19.987h-6c0 7.729-6.255 13.987-13.962 13.987v6Zm-19.962-19.987c0 11.034 8.933 19.987 19.962 19.987v-6c-7.707 0-13.962-6.258-13.962-13.987h-6Zm19.962-19.986c-11.029 0-19.962 8.952-19.962 19.986h6c0-7.728 6.255-13.986 13.962-13.986v-6Zm19.962 19.986c0-11.034-8.933-19.986-19.962-19.986v6c7.707 0 13.962 6.258 13.962 13.986h6Zm73.329 19.987c11.029 0 19.962-8.953 19.962-19.987h-6c0 7.729-6.255 13.987-13.962 13.987v6Zm-19.962-19.987c0 11.034 8.933 19.987 19.962 19.987v-6c-7.707 0-13.962-6.258-13.962-13.987h-6Zm19.962-19.986c-11.029 0-19.962 8.952-19.962 19.986h6c0-7.728 6.255-13.986 13.962-13.986v-6Zm19.962 19.986c0-11.034-8.933-19.986-19.962-19.986v6c7.707 0 13.962 6.258 13.962 13.986h6Zm-52.646 0c0 7.729-6.255 13.987-13.962 13.987v6c11.029 0 19.962-8.953 19.962-19.987h-6Zm-13.962-13.986c7.707 0 13.962 6.258 13.962 13.986h6c0-11.034-8.933-19.986-19.962-19.986v6Zm-13.962 13.986c0-7.728 6.255-13.986 13.962-13.986v-6c-11.028 0-19.962 8.952-19.962 19.986h6Zm13.962 13.987c-7.707 0-13.962-6.258-13.962-13.987h-6c0 11.034 8.934 19.987 19.962 19.987v-6Zm93.292 6c11.028 0 19.962-8.953 19.962-19.987h-6c0 7.729-6.255 13.987-13.962 13.987v6Zm-19.962-19.987c0 11.034 8.933 19.987 19.962 19.987v-6c-7.707 0-13.962-6.258-13.962-13.987h-6Zm19.962-19.986c-11.029 0-19.962 8.952-19.962 19.986h6c0-7.728 6.255-13.986 13.962-13.986v-6Zm19.962 19.986c0-11.034-8.934-19.986-19.962-19.986v6c7.707 0 13.962 6.258 13.962 13.986h6Zm40.645 0c0 7.729-6.255 13.987-13.962 13.987v6c11.029 0 19.962-8.953 19.962-19.987h-6Zm-13.962-13.986c7.707 0 13.962 6.258 13.962 13.986h6c0-11.034-8.933-19.986-19.962-19.986v6Zm-13.962 13.986c0-7.728 6.255-13.986 13.962-13.986v-6c-11.029 0-19.962 8.952-19.962 19.986h6Zm13.962 13.987c-7.707 0-13.962-6.258-13.962-13.987h-6c0 11.034 8.933 19.987 19.962 19.987v-6Zm46.646 6c11.028 0 19.962-8.953 19.962-19.987h-6c0 7.729-6.255 13.987-13.962 13.987v6Zm-19.962-19.987c0 11.034 8.933 19.987 19.962 19.987v-6c-7.707 0-13.962-6.258-13.962-13.987h-6Zm19.962-19.986c-11.029 0-19.962 8.952-19.962 19.986h6c0-7.728 6.255-13.986 13.962-13.986v-6Zm19.962 19.986c0-11.034-8.934-19.986-19.962-19.986v6c7.707 0 13.962 6.258 13.962 13.986h6Z" mask="url(#b)"/></g><mask id="c" fill="#fff"><path fill-rule="evenodd" d="M20 0C8.954 0 0 8.954 0 20v270c0 11.046 8.954 20 20 20h295c11.046 0 20-8.954 20-20V20c0-11.046-8.954-20-20-20H20Zm7.563 44.589c9.368 0 16.962-7.605 16.962-16.986 0-9.382-7.594-16.987-16.962-16.987-9.368 0-16.962 7.605-16.962 16.987 0 9.381 7.594 16.986 16.962 16.986Zm46.646 0c9.368 0 16.962-7.605 16.962-16.986 0-9.382-7.594-16.987-16.962-16.987-9.368 0-16.962 7.605-16.962 16.987 0 9.381 7.594 16.986 16.962 16.986Zm63.607-16.986c0 9.381-7.594 16.986-16.962 16.986-9.367 0-16.962-7.605-16.962-16.986 0-9.382 7.595-16.987 16.962-16.987 9.368 0 16.962 7.605 16.962 16.987ZM167.5 44.589c9.368 0 16.962-7.605 16.962-16.986 0-9.382-7.594-16.987-16.962-16.987-9.368 0-16.962 7.605-16.962 16.987 0 9.381 7.594 16.986 16.962 16.986Zm63.608-16.986c0 9.381-7.595 16.986-16.962 16.986-9.368 0-16.962-7.605-16.962-16.986 0-9.382 7.594-16.987 16.962-16.987 9.367 0 16.962 7.605 16.962 16.987Zm29.683 16.986c9.368 0 16.962-7.605 16.962-16.986 0-9.382-7.594-16.987-16.962-16.987-9.368 0-16.962 7.605-16.962 16.987 0 9.381 7.594 16.986 16.962 16.986Zm63.608-16.986c0 9.381-7.594 16.986-16.962 16.986-9.368 0-16.962-7.605-16.962-16.986 0-9.382 7.594-16.987 16.962-16.987 9.368 0 16.962 7.605 16.962 16.987ZM27.563 91.3c9.368 0 16.962-7.605 16.962-16.986S36.931 57.33 27.563 57.33c-9.368 0-16.962 7.605-16.962 16.986s7.594 16.986 16.962 16.986Zm63.608-16.986c0 9.381-7.594 16.986-16.962 16.986-9.368 0-16.962-7.605-16.962-16.986S64.84 57.33 74.209 57.33c9.368 0 16.962 7.605 16.962 16.986Zm29.683 16.986c9.368 0 16.962-7.605 16.962-16.986s-7.594-16.986-16.962-16.986c-9.367 0-16.962 7.605-16.962 16.986s7.595 16.986 16.962 16.986Zm63.608-16.986c0 9.381-7.594 16.986-16.962 16.986-9.368 0-16.962-7.605-16.962-16.986S158.132 57.33 167.5 57.33c9.368 0 16.962 7.605 16.962 16.986Zm29.684 16.986c9.367 0 16.962-7.605 16.962-16.986s-7.595-16.986-16.962-16.986c-9.368 0-16.962 7.605-16.962 16.986s7.594 16.986 16.962 16.986Zm63.607-16.986c0 9.381-7.594 16.986-16.962 16.986-9.368 0-16.962-7.605-16.962-16.986s7.594-16.986 16.962-16.986c9.368 0 16.962 7.605 16.962 16.986Zm29.684 16.986c9.368 0 16.962-7.605 16.962-16.986s-7.594-16.986-16.962-16.986c-9.368 0-16.962 7.605-16.962 16.986s7.594 16.986 16.962 16.986ZM44.525 121.027c0 9.382-7.594 16.987-16.962 16.987-9.368 0-16.962-7.605-16.962-16.987 0-9.381 7.594-16.986 16.962-16.986 9.368 0 16.962 7.605 16.962 16.986Zm29.684 16.987c9.368 0 16.962-7.605 16.962-16.987 0-9.381-7.594-16.986-16.962-16.986-9.368 0-16.962 7.605-16.962 16.986 0 9.382 7.594 16.987 16.962 16.987Zm63.607-16.987c0 9.382-7.594 16.987-16.962 16.987-9.367 0-16.962-7.605-16.962-16.987 0-9.381 7.595-16.986 16.962-16.986 9.368 0 16.962 7.605 16.962 16.986Zm29.684 16.987c9.368 0 16.962-7.605 16.962-16.987 0-9.381-7.594-16.986-16.962-16.986-9.368 0-16.962 7.605-16.962 16.986 0 9.382 7.594 16.987 16.962 16.987Zm63.608-16.987c0 9.382-7.595 16.987-16.962 16.987-9.368 0-16.962-7.605-16.962-16.987 0-9.381 7.594-16.986 16.962-16.986 9.367 0 16.962 7.605 16.962 16.986Zm29.683 16.987c9.368 0 16.962-7.605 16.962-16.987 0-9.381-7.594-16.986-16.962-16.986-9.368 0-16.962 7.605-16.962 16.986 0 9.382 7.594 16.987 16.962 16.987Zm63.608-16.987c0 9.382-7.594 16.987-16.962 16.987-9.368 0-16.962-7.605-16.962-16.987 0-9.381 7.594-16.986 16.962-16.986 9.368 0 16.962 7.605 16.962 16.986ZM27.563 184.726c9.368 0 16.962-7.605 16.962-16.986 0-9.382-7.594-16.987-16.962-16.987-9.368 0-16.962 7.605-16.962 16.987 0 9.381 7.594 16.986 16.962 16.986Zm63.608-16.986c0 9.381-7.594 16.986-16.962 16.986-9.368 0-16.962-7.605-16.962-16.986 0-9.382 7.594-16.987 16.962-16.987 9.368 0 16.962 7.605 16.962 16.987Zm29.683 16.986c9.368 0 16.962-7.605 16.962-16.986 0-9.382-7.594-16.987-16.962-16.987-9.367 0-16.962 7.605-16.962 16.987 0 9.381 7.595 16.986 16.962 16.986Zm63.608-16.986c0 9.381-7.594 16.986-16.962 16.986-9.368 0-16.962-7.605-16.962-16.986 0-9.382 7.594-16.987 16.962-16.987 9.368 0 16.962 7.605 16.962 16.987Zm29.684 16.986c9.367 0 16.962-7.605 16.962-16.986 0-9.382-7.595-16.987-16.962-16.987-9.368 0-16.962 7.605-16.962 16.987 0 9.381 7.594 16.986 16.962 16.986Zm63.607-16.986c0 9.381-7.594 16.986-16.962 16.986-9.368 0-16.962-7.605-16.962-16.986 0-9.382 7.594-16.987 16.962-16.987 9.368 0 16.962 7.605 16.962 16.987Zm29.684 16.986c9.368 0 16.962-7.605 16.962-16.986 0-9.382-7.594-16.987-16.962-16.987-9.368 0-16.962 7.605-16.962 16.987 0 9.381 7.594 16.986 16.962 16.986ZM44.525 214.452c0 9.381-7.594 16.986-16.962 16.986-9.368 0-16.962-7.605-16.962-16.986s7.594-16.986 16.962-16.986c9.368 0 16.962 7.605 16.962 16.986Zm29.684 16.986c9.368 0 16.962-7.605 16.962-16.986s-7.594-16.986-16.962-16.986c-9.368 0-16.962 7.605-16.962 16.986s7.594 16.986 16.962 16.986Zm63.607-16.986c0 9.381-7.594 16.986-16.962 16.986-9.367 0-16.962-7.605-16.962-16.986s7.595-16.986 16.962-16.986c9.368 0 16.962 7.605 16.962 16.986Zm29.684 16.986c9.368 0 16.962-7.605 16.962-16.986s-7.594-16.986-16.962-16.986c-9.368 0-16.962 7.605-16.962 16.986s7.594 16.986 16.962 16.986Zm63.608-16.986c0 9.381-7.595 16.986-16.962 16.986-9.368 0-16.962-7.605-16.962-16.986s7.594-16.986 16.962-16.986c9.367 0 16.962 7.605 16.962 16.986Zm29.683 16.986c9.368 0 16.962-7.605 16.962-16.986s-7.594-16.986-16.962-16.986c-9.368 0-16.962 7.605-16.962 16.986s7.594 16.986 16.962 16.986Zm63.608-16.986c0 9.381-7.594 16.986-16.962 16.986-9.368 0-16.962-7.605-16.962-16.986s7.594-16.986 16.962-16.986c9.368 0 16.962 7.605 16.962 16.986ZM27.563 278.151c9.368 0 16.962-7.605 16.962-16.987 0-9.381-7.594-16.986-16.962-16.986-9.368 0-16.962 7.605-16.962 16.986 0 9.382 7.594 16.987 16.962 16.987Zm63.608-16.987c0 9.382-7.594 16.987-16.962 16.987-9.368 0-16.962-7.605-16.962-16.987 0-9.381 7.594-16.986 16.962-16.986 9.368 0 16.962 7.605 16.962 16.986Zm93.291 0c0 9.382-7.594 16.987-16.962 16.987-9.368 0-16.962-7.605-16.962-16.987 0-9.381 7.594-16.986 16.962-16.986 9.368 0 16.962 7.605 16.962 16.986Zm-63.608 16.987c9.368 0 16.962-7.605 16.962-16.987 0-9.381-7.594-16.986-16.962-16.986-9.367 0-16.962 7.605-16.962 16.986 0 9.382 7.595 16.987 16.962 16.987Zm110.254-16.987c0 9.382-7.595 16.987-16.962 16.987-9.368 0-16.962-7.605-16.962-16.987 0-9.381 7.594-16.986 16.962-16.986 9.367 0 16.962 7.605 16.962 16.986Zm29.683 16.987c9.368 0 16.962-7.605 16.962-16.987 0-9.381-7.594-16.986-16.962-16.986-9.368 0-16.962 7.605-16.962 16.986 0 9.382 7.594 16.987 16.962 16.987Zm63.608-16.987c0 9.382-7.594 16.987-16.962 16.987-9.368 0-16.962-7.605-16.962-16.987 0-9.381 7.594-16.986 16.962-16.986 9.368 0 16.962 7.605 16.962 16.986Z" clip-rule="evenodd"/></mask><path fill="#fff" fill-rule="evenodd" d="M20 0C8.954 0 0 8.954 0 20v270c0 11.046 8.954 20 20 20h295c11.046 0 20-8.954 20-20V20c0-11.046-8.954-20-20-20H20Zm7.563 44.589c9.368 0 16.962-7.605 16.962-16.986 0-9.382-7.594-16.987-16.962-16.987-9.368 0-16.962 7.605-16.962 16.987 0 9.381 7.594 16.986 16.962 16.986Zm46.646 0c9.368 0 16.962-7.605 16.962-16.986 0-9.382-7.594-16.987-16.962-16.987-9.368 0-16.962 7.605-16.962 16.987 0 9.381 7.594 16.986 16.962 16.986Zm63.607-16.986c0 9.381-7.594 16.986-16.962 16.986-9.367 0-16.962-7.605-16.962-16.986 0-9.382 7.595-16.987 16.962-16.987 9.368 0 16.962 7.605 16.962 16.987ZM167.5 44.589c9.368 0 16.962-7.605 16.962-16.986 0-9.382-7.594-16.987-16.962-16.987-9.368 0-16.962 7.605-16.962 16.987 0 9.381 7.594 16.986 16.962 16.986Zm63.608-16.986c0 9.381-7.595 16.986-16.962 16.986-9.368 0-16.962-7.605-16.962-16.986 0-9.382 7.594-16.987 16.962-16.987 9.367 0 16.962 7.605 16.962 16.987Zm29.683 16.986c9.368 0 16.962-7.605 16.962-16.986 0-9.382-7.594-16.987-16.962-16.987-9.368 0-16.962 7.605-16.962 16.987 0 9.381 7.594 16.986 16.962 16.986Zm63.608-16.986c0 9.381-7.594 16.986-16.962 16.986-9.368 0-16.962-7.605-16.962-16.986 0-9.382 7.594-16.987 16.962-16.987 9.368 0 16.962 7.605 16.962 16.987ZM27.563 91.3c9.368 0 16.962-7.605 16.962-16.986S36.931 57.33 27.563 57.33c-9.368 0-16.962 7.605-16.962 16.986s7.594 16.986 16.962 16.986Zm63.608-16.986c0 9.381-7.594 16.986-16.962 16.986-9.368 0-16.962-7.605-16.962-16.986S64.84 57.33 74.209 57.33c9.368 0 16.962 7.605 16.962 16.986Zm29.683 16.986c9.368 0 16.962-7.605 16.962-16.986s-7.594-16.986-16.962-16.986c-9.367 0-16.962 7.605-16.962 16.986s7.595 16.986 16.962 16.986Zm63.608-16.986c0 9.381-7.594 16.986-16.962 16.986-9.368 0-16.962-7.605-16.962-16.986S158.132 57.33 167.5 57.33c9.368 0 16.962 7.605 16.962 16.986Zm29.684 16.986c9.367 0 16.962-7.605 16.962-16.986s-7.595-16.986-16.962-16.986c-9.368 0-16.962 7.605-16.962 16.986s7.594 16.986 16.962 16.986Zm63.607-16.986c0 9.381-7.594 16.986-16.962 16.986-9.368 0-16.962-7.605-16.962-16.986s7.594-16.986 16.962-16.986c9.368 0 16.962 7.605 16.962 16.986Zm29.684 16.986c9.368 0 16.962-7.605 16.962-16.986s-7.594-16.986-16.962-16.986c-9.368 0-16.962 7.605-16.962 16.986s7.594 16.986 16.962 16.986ZM44.525 121.027c0 9.382-7.594 16.987-16.962 16.987-9.368 0-16.962-7.605-16.962-16.987 0-9.381 7.594-16.986 16.962-16.986 9.368 0 16.962 7.605 16.962 16.986Zm29.684 16.987c9.368 0 16.962-7.605 16.962-16.987 0-9.381-7.594-16.986-16.962-16.986-9.368 0-16.962 7.605-16.962 16.986 0 9.382 7.594 16.987 16.962 16.987Zm63.607-16.987c0 9.382-7.594 16.987-16.962 16.987-9.367 0-16.962-7.605-16.962-16.987 0-9.381 7.595-16.986 16.962-16.986 9.368 0 16.962 7.605 16.962 16.986Zm29.684 16.987c9.368 0 16.962-7.605 16.962-16.987 0-9.381-7.594-16.986-16.962-16.986-9.368 0-16.962 7.605-16.962 16.986 0 9.382 7.594 16.987 16.962 16.987Zm63.608-16.987c0 9.382-7.595 16.987-16.962 16.987-9.368 0-16.962-7.605-16.962-16.987 0-9.381 7.594-16.986 16.962-16.986 9.367 0 16.962 7.605 16.962 16.986Zm29.683 16.987c9.368 0 16.962-7.605 16.962-16.987 0-9.381-7.594-16.986-16.962-16.986-9.368 0-16.962 7.605-16.962 16.986 0 9.382 7.594 16.987 16.962 16.987Zm63.608-16.987c0 9.382-7.594 16.987-16.962 16.987-9.368 0-16.962-7.605-16.962-16.987 0-9.381 7.594-16.986 16.962-16.986 9.368 0 16.962 7.605 16.962 16.986ZM27.563 184.726c9.368 0 16.962-7.605 16.962-16.986 0-9.382-7.594-16.987-16.962-16.987-9.368 0-16.962 7.605-16.962 16.987 0 9.381 7.594 16.986 16.962 16.986Zm63.608-16.986c0 9.381-7.594 16.986-16.962 16.986-9.368 0-16.962-7.605-16.962-16.986 0-9.382 7.594-16.987 16.962-16.987 9.368 0 16.962 7.605 16.962 16.987Zm29.683 16.986c9.368 0 16.962-7.605 16.962-16.986 0-9.382-7.594-16.987-16.962-16.987-9.367 0-16.962 7.605-16.962 16.987 0 9.381 7.595 16.986 16.962 16.986Zm63.608-16.986c0 9.381-7.594 16.986-16.962 16.986-9.368 0-16.962-7.605-16.962-16.986 0-9.382 7.594-16.987 16.962-16.987 9.368 0 16.962 7.605 16.962 16.987Zm29.684 16.986c9.367 0 16.962-7.605 16.962-16.986 0-9.382-7.595-16.987-16.962-16.987-9.368 0-16.962 7.605-16.962 16.987 0 9.381 7.594 16.986 16.962 16.986Zm63.607-16.986c0 9.381-7.594 16.986-16.962 16.986-9.368 0-16.962-7.605-16.962-16.986 0-9.382 7.594-16.987 16.962-16.987 9.368 0 16.962 7.605 16.962 16.987Zm29.684 16.986c9.368 0 16.962-7.605 16.962-16.986 0-9.382-7.594-16.987-16.962-16.987-9.368 0-16.962 7.605-16.962 16.987 0 9.381 7.594 16.986 16.962 16.986ZM44.525 214.452c0 9.381-7.594 16.986-16.962 16.986-9.368 0-16.962-7.605-16.962-16.986s7.594-16.986 16.962-16.986c9.368 0 16.962 7.605 16.962 16.986Zm29.684 16.986c9.368 0 16.962-7.605 16.962-16.986s-7.594-16.986-16.962-16.986c-9.368 0-16.962 7.605-16.962 16.986s7.594 16.986 16.962 16.986Zm63.607-16.986c0 9.381-7.594 16.986-16.962 16.986-9.367 0-16.962-7.605-16.962-16.986s7.595-16.986 16.962-16.986c9.368 0 16.962 7.605 16.962 16.986Zm29.684 16.986c9.368 0 16.962-7.605 16.962-16.986s-7.594-16.986-16.962-16.986c-9.368 0-16.962 7.605-16.962 16.986s7.594 16.986 16.962 16.986Zm63.608-16.986c0 9.381-7.595 16.986-16.962 16.986-9.368 0-16.962-7.605-16.962-16.986s7.594-16.986 16.962-16.986c9.367 0 16.962 7.605 16.962 16.986Zm29.683 16.986c9.368 0 16.962-7.605 16.962-16.986s-7.594-16.986-16.962-16.986c-9.368 0-16.962 7.605-16.962 16.986s7.594 16.986 16.962 16.986Zm63.608-16.986c0 9.381-7.594 16.986-16.962 16.986-9.368 0-16.962-7.605-16.962-16.986s7.594-16.986 16.962-16.986c9.368 0 16.962 7.605 16.962 16.986ZM27.563 278.151c9.368 0 16.962-7.605 16.962-16.987 0-9.381-7.594-16.986-16.962-16.986-9.368 0-16.962 7.605-16.962 16.986 0 9.382 7.594 16.987 16.962 16.987Zm63.608-16.987c0 9.382-7.594 16.987-16.962 16.987-9.368 0-16.962-7.605-16.962-16.987 0-9.381 7.594-16.986 16.962-16.986 9.368 0 16.962 7.605 16.962 16.986Zm93.291 0c0 9.382-7.594 16.987-16.962 16.987-9.368 0-16.962-7.605-16.962-16.987 0-9.381 7.594-16.986 16.962-16.986 9.368 0 16.962 7.605 16.962 16.986Zm-63.608 16.987c9.368 0 16.962-7.605 16.962-16.987 0-9.381-7.594-16.986-16.962-16.986-9.367 0-16.962 7.605-16.962 16.986 0 9.382 7.595 16.987 16.962 16.987Zm110.254-16.987c0 9.382-7.595 16.987-16.962 16.987-9.368 0-16.962-7.605-16.962-16.987 0-9.381 7.594-16.986 16.962-16.986 9.367 0 16.962 7.605 16.962 16.986Zm29.683 16.987c9.368 0 16.962-7.605 16.962-16.987 0-9.381-7.594-16.986-16.962-16.986-9.368 0-16.962 7.605-16.962 16.986 0 9.382 7.594 16.987 16.962 16.987Zm63.608-16.987c0 9.382-7.594 16.987-16.962 16.987-9.368 0-16.962-7.605-16.962-16.987 0-9.381 7.594-16.986 16.962-16.986 9.368 0 16.962 7.605 16.962 16.986Z" clip-rule="evenodd"/><path fill="#000" d="M3 20c0-9.389 7.611-17 17-17v-6C7.297-3-3 7.297-3 20h6Zm0 270V20h-6v270h6Zm17 17c-9.389 0-17-7.611-17-17h-6c0 12.703 10.297 23 23 23v-6Zm295 0H20v6h295v-6Zm17-17c0 9.389-7.611 17-17 17v6c12.703 0 23-10.297 23-23h-6Zm0-270v270h6V20h-6ZM315 3c9.389 0 17 7.611 17 17h6c0-12.703-10.297-23-23-23v6ZM20 3h295v-6H20v6Zm21.525 24.603c0 7.728-6.255 13.986-13.962 13.986v6c11.03 0 19.962-8.952 19.962-19.986h-6ZM27.563 13.616c7.707 0 13.962 6.258 13.962 13.987h6c0-11.034-8.933-19.987-19.962-19.987v6ZM13.601 27.603c0-7.729 6.255-13.987 13.962-13.987v-6c-11.028 0-19.962 8.953-19.962 19.987h6Zm13.962 13.986c-7.707 0-13.962-6.258-13.962-13.986h-6c0 11.034 8.934 19.986 19.962 19.986v-6Zm60.608-13.986c0 7.728-6.255 13.986-13.962 13.986v6c11.029 0 19.962-8.952 19.962-19.986h-6ZM74.209 13.616c7.707 0 13.962 6.258 13.962 13.987h6c0-11.034-8.933-19.987-19.962-19.987v6ZM60.247 27.603c0-7.729 6.255-13.987 13.962-13.987v-6c-11.029 0-19.962 8.953-19.962 19.987h6Zm13.962 13.986c-7.707 0-13.962-6.258-13.962-13.986h-6c0 11.034 8.933 19.986 19.962 19.986v-6Zm46.645 6c11.029 0 19.962-8.952 19.962-19.986h-6c0 7.728-6.255 13.986-13.962 13.986v6Zm-19.962-19.986c0 11.034 8.934 19.986 19.962 19.986v-6c-7.707 0-13.962-6.258-13.962-13.986h-6Zm19.962-19.987c-11.028 0-19.962 8.953-19.962 19.987h6c0-7.729 6.255-13.987 13.962-13.987v-6Zm19.962 19.987c0-11.034-8.933-19.987-19.962-19.987v6c7.707 0 13.962 6.258 13.962 13.987h6Zm40.646 0c0 7.728-6.255 13.986-13.962 13.986v6c11.029 0 19.962-8.952 19.962-19.986h-6ZM167.5 13.616c7.707 0 13.962 6.258 13.962 13.987h6c0-11.034-8.933-19.987-19.962-19.987v6Zm-13.962 13.987c0-7.729 6.255-13.987 13.962-13.987v-6c-11.029 0-19.962 8.953-19.962 19.987h6ZM167.5 41.589c-7.707 0-13.962-6.258-13.962-13.986h-6c0 11.034 8.933 19.986 19.962 19.986v-6Zm46.646 6c11.028 0 19.962-8.952 19.962-19.986h-6c0 7.728-6.255 13.986-13.962 13.986v6Zm-19.962-19.986c0 11.034 8.933 19.986 19.962 19.986v-6c-7.707 0-13.962-6.258-13.962-13.986h-6Zm19.962-19.987c-11.029 0-19.962 8.953-19.962 19.987h6c0-7.729 6.255-13.987 13.962-13.987v-6Zm19.962 19.987c0-11.034-8.934-19.987-19.962-19.987v6c7.707 0 13.962 6.258 13.962 13.987h6Zm40.645 0c0 7.728-6.255 13.986-13.962 13.986v6c11.029 0 19.962-8.952 19.962-19.986h-6Zm-13.962-13.987c7.707 0 13.962 6.258 13.962 13.987h6c0-11.034-8.933-19.987-19.962-19.987v6Zm-13.962 13.987c0-7.729 6.255-13.987 13.962-13.987v-6c-11.029 0-19.962 8.953-19.962 19.987h6Zm13.962 13.986c-7.707 0-13.962-6.258-13.962-13.986h-6c0 11.034 8.933 19.986 19.962 19.986v-6Zm46.646 6c11.028 0 19.962-8.952 19.962-19.986h-6c0 7.728-6.255 13.986-13.962 13.986v6Zm-19.962-19.986c0 11.034 8.933 19.986 19.962 19.986v-6c-7.707 0-13.962-6.258-13.962-13.986h-6Zm19.962-19.987c-11.029 0-19.962 8.953-19.962 19.987h6c0-7.729 6.255-13.987 13.962-13.987v-6Zm19.962 19.987c0-11.034-8.934-19.987-19.962-19.987v6c7.707 0 13.962 6.258 13.962 13.987h6ZM41.525 74.315c0 7.728-6.255 13.986-13.962 13.986v6c11.03 0 19.962-8.952 19.962-19.986h-6ZM27.563 60.33c7.707 0 13.962 6.258 13.962 13.986h6c0-11.034-8.933-19.986-19.962-19.986v6ZM13.601 74.315c0-7.728 6.255-13.986 13.962-13.986v-6c-11.028 0-19.962 8.952-19.962 19.986h6Zm13.962 13.986c-7.707 0-13.962-6.258-13.962-13.986h-6c0 11.034 8.934 19.986 19.962 19.986v-6Zm46.646 6c11.029 0 19.962-8.952 19.962-19.986h-6c0 7.728-6.255 13.986-13.962 13.986v6ZM54.247 74.315c0 11.034 8.933 19.986 19.962 19.986v-6c-7.707 0-13.962-6.258-13.962-13.986h-6ZM74.209 54.33c-11.029 0-19.962 8.952-19.962 19.986h6c0-7.728 6.255-13.986 13.962-13.986v-6ZM94.17 74.315c0-11.034-8.933-19.986-19.962-19.986v6c7.707 0 13.962 6.258 13.962 13.986h6Zm40.645 0c0 7.728-6.255 13.986-13.962 13.986v6c11.029 0 19.962-8.952 19.962-19.986h-6ZM120.854 60.33c7.707 0 13.962 6.258 13.962 13.986h6c0-11.034-8.933-19.986-19.962-19.986v6Zm-13.962 13.986c0-7.728 6.255-13.986 13.962-13.986v-6c-11.028 0-19.962 8.952-19.962 19.986h6Zm13.962 13.986c-7.707 0-13.962-6.258-13.962-13.986h-6c0 11.034 8.934 19.986 19.962 19.986v-6Zm46.646 6c11.029 0 19.962-8.952 19.962-19.986h-6c0 7.728-6.255 13.986-13.962 13.986v6Zm-19.962-19.986c0 11.034 8.933 19.986 19.962 19.986v-6c-7.707 0-13.962-6.258-13.962-13.986h-6ZM167.5 54.33c-11.029 0-19.962 8.952-19.962 19.986h6c0-7.728 6.255-13.986 13.962-13.986v-6Zm19.962 19.986c0-11.034-8.933-19.986-19.962-19.986v6c7.707 0 13.962 6.258 13.962 13.986h6Zm40.646 0c0 7.728-6.255 13.986-13.962 13.986v6c11.028 0 19.962-8.952 19.962-19.986h-6ZM214.146 60.33c7.707 0 13.962 6.258 13.962 13.986h6c0-11.034-8.934-19.986-19.962-19.986v6Zm-13.962 13.986c0-7.728 6.255-13.986 13.962-13.986v-6c-11.029 0-19.962 8.952-19.962 19.986h6Zm13.962 13.986c-7.707 0-13.962-6.258-13.962-13.986h-6c0 11.034 8.933 19.986 19.962 19.986v-6Zm46.645 6c11.029 0 19.962-8.952 19.962-19.986h-6c0 7.728-6.255 13.986-13.962 13.986v6Zm-19.962-19.986c0 11.034 8.933 19.986 19.962 19.986v-6c-7.707 0-13.962-6.258-13.962-13.986h-6Zm19.962-19.986c-11.029 0-19.962 8.952-19.962 19.986h6c0-7.728 6.255-13.986 13.962-13.986v-6Zm19.962 19.986c0-11.034-8.933-19.986-19.962-19.986v6c7.707 0 13.962 6.258 13.962 13.986h6Zm40.646 0c0 7.728-6.255 13.986-13.962 13.986v6c11.028 0 19.962-8.952 19.962-19.986h-6ZM307.437 60.33c7.707 0 13.962 6.258 13.962 13.986h6c0-11.034-8.934-19.986-19.962-19.986v6Zm-13.962 13.986c0-7.728 6.255-13.986 13.962-13.986v-6c-11.029 0-19.962 8.952-19.962 19.986h6Zm13.962 13.986c-7.707 0-13.962-6.258-13.962-13.986h-6c0 11.034 8.933 19.986 19.962 19.986v-6ZM27.563 141.014c11.03 0 19.962-8.953 19.962-19.987h-6c0 7.729-6.255 13.987-13.962 13.987v6ZM7.601 121.027c0 11.034 8.934 19.987 19.962 19.987v-6c-7.707 0-13.962-6.258-13.962-13.987h-6Zm19.962-19.986c-11.028 0-19.962 8.952-19.962 19.986h6c0-7.728 6.255-13.986 13.962-13.986v-6Zm19.962 19.986c0-11.034-8.933-19.986-19.962-19.986v6c7.707 0 13.962 6.258 13.962 13.986h6Zm40.646 0c0 7.729-6.255 13.987-13.962 13.987v6c11.029 0 19.962-8.953 19.962-19.987h-6Zm-13.962-13.986c7.707 0 13.962 6.258 13.962 13.986h6c0-11.034-8.933-19.986-19.962-19.986v6Zm-13.962 13.986c0-7.728 6.255-13.986 13.962-13.986v-6c-11.029 0-19.962 8.952-19.962 19.986h6Zm13.962 13.987c-7.707 0-13.962-6.258-13.962-13.987h-6c0 11.034 8.933 19.987 19.962 19.987v-6Zm46.645 6c11.029 0 19.962-8.953 19.962-19.987h-6c0 7.729-6.255 13.987-13.962 13.987v6Zm-19.962-19.987c0 11.034 8.934 19.987 19.962 19.987v-6c-7.707 0-13.962-6.258-13.962-13.987h-6Zm19.962-19.986c-11.028 0-19.962 8.952-19.962 19.986h6c0-7.728 6.255-13.986 13.962-13.986v-6Zm19.962 19.986c0-11.034-8.933-19.986-19.962-19.986v6c7.707 0 13.962 6.258 13.962 13.986h6Zm40.646 0c0 7.729-6.255 13.987-13.962 13.987v6c11.029 0 19.962-8.953 19.962-19.987h-6ZM167.5 107.041c7.707 0 13.962 6.258 13.962 13.986h6c0-11.034-8.933-19.986-19.962-19.986v6Zm-13.962 13.986c0-7.728 6.255-13.986 13.962-13.986v-6c-11.029 0-19.962 8.952-19.962 19.986h6Zm13.962 13.987c-7.707 0-13.962-6.258-13.962-13.987h-6c0 11.034 8.933 19.987 19.962 19.987v-6Zm46.646 6c11.028 0 19.962-8.953 19.962-19.987h-6c0 7.729-6.255 13.987-13.962 13.987v6Zm-19.962-19.987c0 11.034 8.933 19.987 19.962 19.987v-6c-7.707 0-13.962-6.258-13.962-13.987h-6Zm19.962-19.986c-11.029 0-19.962 8.952-19.962 19.986h6c0-7.728 6.255-13.986 13.962-13.986v-6Zm19.962 19.986c0-11.034-8.934-19.986-19.962-19.986v6c7.707 0 13.962 6.258 13.962 13.986h6Zm40.645 0c0 7.729-6.255 13.987-13.962 13.987v6c11.029 0 19.962-8.953 19.962-19.987h-6Zm-13.962-13.986c7.707 0 13.962 6.258 13.962 13.986h6c0-11.034-8.933-19.986-19.962-19.986v6Zm-13.962 13.986c0-7.728 6.255-13.986 13.962-13.986v-6c-11.029 0-19.962 8.952-19.962 19.986h6Zm13.962 13.987c-7.707 0-13.962-6.258-13.962-13.987h-6c0 11.034 8.933 19.987 19.962 19.987v-6Zm46.646 6c11.028 0 19.962-8.953 19.962-19.987h-6c0 7.729-6.255 13.987-13.962 13.987v6Zm-19.962-19.987c0 11.034 8.933 19.987 19.962 19.987v-6c-7.707 0-13.962-6.258-13.962-13.987h-6Zm19.962-19.986c-11.029 0-19.962 8.952-19.962 19.986h6c0-7.728 6.255-13.986 13.962-13.986v-6Zm19.962 19.986c0-11.034-8.934-19.986-19.962-19.986v6c7.707 0 13.962 6.258 13.962 13.986h6ZM41.525 167.74c0 7.728-6.255 13.986-13.962 13.986v6c11.03 0 19.962-8.952 19.962-19.986h-6Zm-13.962-13.987c7.707 0 13.962 6.258 13.962 13.987h6c0-11.034-8.933-19.987-19.962-19.987v6ZM13.601 167.74c0-7.729 6.255-13.987 13.962-13.987v-6c-11.028 0-19.962 8.953-19.962 19.987h6Zm13.962 13.986c-7.707 0-13.962-6.258-13.962-13.986h-6c0 11.034 8.934 19.986 19.962 19.986v-6Zm46.646 6c11.029 0 19.962-8.952 19.962-19.986h-6c0 7.728-6.255 13.986-13.962 13.986v6ZM54.247 167.74c0 11.034 8.933 19.986 19.962 19.986v-6c-7.707 0-13.962-6.258-13.962-13.986h-6Zm19.962-19.987c-11.029 0-19.962 8.953-19.962 19.987h6c0-7.729 6.255-13.987 13.962-13.987v-6ZM94.17 167.74c0-11.034-8.933-19.987-19.962-19.987v6c7.707 0 13.962 6.258 13.962 13.987h6Zm40.645 0c0 7.728-6.255 13.986-13.962 13.986v6c11.029 0 19.962-8.952 19.962-19.986h-6Zm-13.962-13.987c7.707 0 13.962 6.258 13.962 13.987h6c0-11.034-8.933-19.987-19.962-19.987v6Zm-13.962 13.987c0-7.729 6.255-13.987 13.962-13.987v-6c-11.028 0-19.962 8.953-19.962 19.987h6Zm13.962 13.986c-7.707 0-13.962-6.258-13.962-13.986h-6c0 11.034 8.934 19.986 19.962 19.986v-6Zm46.646 6c11.029 0 19.962-8.952 19.962-19.986h-6c0 7.728-6.255 13.986-13.962 13.986v6Zm-19.962-19.986c0 11.034 8.933 19.986 19.962 19.986v-6c-7.707 0-13.962-6.258-13.962-13.986h-6Zm19.962-19.987c-11.029 0-19.962 8.953-19.962 19.987h6c0-7.729 6.255-13.987 13.962-13.987v-6Zm19.962 19.987c0-11.034-8.933-19.987-19.962-19.987v6c7.707 0 13.962 6.258 13.962 13.987h6Zm40.646 0c0 7.728-6.255 13.986-13.962 13.986v6c11.028 0 19.962-8.952 19.962-19.986h-6Zm-13.962-13.987c7.707 0 13.962 6.258 13.962 13.987h6c0-11.034-8.934-19.987-19.962-19.987v6Zm-13.962 13.987c0-7.729 6.255-13.987 13.962-13.987v-6c-11.029 0-19.962 8.953-19.962 19.987h6Zm13.962 13.986c-7.707 0-13.962-6.258-13.962-13.986h-6c0 11.034 8.933 19.986 19.962 19.986v-6Zm46.645 6c11.029 0 19.962-8.952 19.962-19.986h-6c0 7.728-6.255 13.986-13.962 13.986v6Zm-19.962-19.986c0 11.034 8.933 19.986 19.962 19.986v-6c-7.707 0-13.962-6.258-13.962-13.986h-6Zm19.962-19.987c-11.029 0-19.962 8.953-19.962 19.987h6c0-7.729 6.255-13.987 13.962-13.987v-6Zm19.962 19.987c0-11.034-8.933-19.987-19.962-19.987v6c7.707 0 13.962 6.258 13.962 13.987h6Zm40.646 0c0 7.728-6.255 13.986-13.962 13.986v6c11.028 0 19.962-8.952 19.962-19.986h-6Zm-13.962-13.987c7.707 0 13.962 6.258 13.962 13.987h6c0-11.034-8.934-19.987-19.962-19.987v6Zm-13.962 13.987c0-7.729 6.255-13.987 13.962-13.987v-6c-11.029 0-19.962 8.953-19.962 19.987h6Zm13.962 13.986c-7.707 0-13.962-6.258-13.962-13.986h-6c0 11.034 8.933 19.986 19.962 19.986v-6ZM27.563 234.438c11.03 0 19.962-8.952 19.962-19.986h-6c0 7.729-6.255 13.986-13.962 13.986v6ZM7.601 214.452c0 11.034 8.934 19.986 19.962 19.986v-6c-7.707 0-13.962-6.257-13.962-13.986h-6Zm19.962-19.986c-11.028 0-19.962 8.952-19.962 19.986h6c0-7.728 6.255-13.986 13.962-13.986v-6Zm19.962 19.986c0-11.034-8.933-19.986-19.962-19.986v6c7.707 0 13.962 6.258 13.962 13.986h6Zm40.646 0c0 7.729-6.255 13.986-13.962 13.986v6c11.029 0 19.962-8.952 19.962-19.986h-6Zm-13.962-13.986c7.707 0 13.962 6.258 13.962 13.986h6c0-11.034-8.933-19.986-19.962-19.986v6Zm-13.962 13.986c0-7.728 6.255-13.986 13.962-13.986v-6c-11.029 0-19.962 8.952-19.962 19.986h6Zm13.962 13.986c-7.707 0-13.962-6.257-13.962-13.986h-6c0 11.034 8.933 19.986 19.962 19.986v-6Zm46.645 6c11.029 0 19.962-8.952 19.962-19.986h-6c0 7.729-6.255 13.986-13.962 13.986v6Zm-19.962-19.986c0 11.034 8.934 19.986 19.962 19.986v-6c-7.707 0-13.962-6.257-13.962-13.986h-6Zm19.962-19.986c-11.028 0-19.962 8.952-19.962 19.986h6c0-7.728 6.255-13.986 13.962-13.986v-6Zm19.962 19.986c0-11.034-8.933-19.986-19.962-19.986v6c7.707 0 13.962 6.258 13.962 13.986h6Zm40.646 0c0 7.729-6.255 13.986-13.962 13.986v6c11.029 0 19.962-8.952 19.962-19.986h-6ZM167.5 200.466c7.707 0 13.962 6.258 13.962 13.986h6c0-11.034-8.933-19.986-19.962-19.986v6Zm-13.962 13.986c0-7.728 6.255-13.986 13.962-13.986v-6c-11.029 0-19.962 8.952-19.962 19.986h6Zm13.962 13.986c-7.707 0-13.962-6.257-13.962-13.986h-6c0 11.034 8.933 19.986 19.962 19.986v-6Zm46.646 6c11.028 0 19.962-8.952 19.962-19.986h-6c0 7.729-6.255 13.986-13.962 13.986v6Zm-19.962-19.986c0 11.034 8.933 19.986 19.962 19.986v-6c-7.707 0-13.962-6.257-13.962-13.986h-6Zm19.962-19.986c-11.029 0-19.962 8.952-19.962 19.986h6c0-7.728 6.255-13.986 13.962-13.986v-6Zm19.962 19.986c0-11.034-8.934-19.986-19.962-19.986v6c7.707 0 13.962 6.258 13.962 13.986h6Zm40.645 0c0 7.729-6.255 13.986-13.962 13.986v6c11.029 0 19.962-8.952 19.962-19.986h-6Zm-13.962-13.986c7.707 0 13.962 6.258 13.962 13.986h6c0-11.034-8.933-19.986-19.962-19.986v6Zm-13.962 13.986c0-7.728 6.255-13.986 13.962-13.986v-6c-11.029 0-19.962 8.952-19.962 19.986h6Zm13.962 13.986c-7.707 0-13.962-6.257-13.962-13.986h-6c0 11.034 8.933 19.986 19.962 19.986v-6Zm46.646 6c11.028 0 19.962-8.952 19.962-19.986h-6c0 7.729-6.255 13.986-13.962 13.986v6Zm-19.962-19.986c0 11.034 8.933 19.986 19.962 19.986v-6c-7.707 0-13.962-6.257-13.962-13.986h-6Zm19.962-19.986c-11.029 0-19.962 8.952-19.962 19.986h6c0-7.728 6.255-13.986 13.962-13.986v-6Zm19.962 19.986c0-11.034-8.934-19.986-19.962-19.986v6c7.707 0 13.962 6.258 13.962 13.986h6ZM41.525 261.164c0 7.729-6.255 13.987-13.962 13.987v6c11.03 0 19.962-8.953 19.962-19.987h-6Zm-13.962-13.986c7.707 0 13.962 6.258 13.962 13.986h6c0-11.034-8.933-19.986-19.962-19.986v6Zm-13.962 13.986c0-7.728 6.255-13.986 13.962-13.986v-6c-11.028 0-19.962 8.952-19.962 19.986h6Zm13.962 13.987c-7.707 0-13.962-6.258-13.962-13.987h-6c0 11.034 8.934 19.987 19.962 19.987v-6Zm46.646 6c11.029 0 19.962-8.953 19.962-19.987h-6c0 7.729-6.255 13.987-13.962 13.987v6Zm-19.962-19.987c0 11.034 8.933 19.987 19.962 19.987v-6c-7.707 0-13.962-6.258-13.962-13.987h-6Zm19.962-19.986c-11.029 0-19.962 8.952-19.962 19.986h6c0-7.728 6.255-13.986 13.962-13.986v-6Zm19.962 19.986c0-11.034-8.933-19.986-19.962-19.986v6c7.707 0 13.962 6.258 13.962 13.986h6Zm73.329 19.987c11.029 0 19.962-8.953 19.962-19.987h-6c0 7.729-6.255 13.987-13.962 13.987v6Zm-19.962-19.987c0 11.034 8.933 19.987 19.962 19.987v-6c-7.707 0-13.962-6.258-13.962-13.987h-6Zm19.962-19.986c-11.029 0-19.962 8.952-19.962 19.986h6c0-7.728 6.255-13.986 13.962-13.986v-6Zm19.962 19.986c0-11.034-8.933-19.986-19.962-19.986v6c7.707 0 13.962 6.258 13.962 13.986h6Zm-52.646 0c0 7.729-6.255 13.987-13.962 13.987v6c11.029 0 19.962-8.953 19.962-19.987h-6Zm-13.962-13.986c7.707 0 13.962 6.258 13.962 13.986h6c0-11.034-8.933-19.986-19.962-19.986v6Zm-13.962 13.986c0-7.728 6.255-13.986 13.962-13.986v-6c-11.028 0-19.962 8.952-19.962 19.986h6Zm13.962 13.987c-7.707 0-13.962-6.258-13.962-13.987h-6c0 11.034 8.934 19.987 19.962 19.987v-6Zm93.292 6c11.028 0 19.962-8.953 19.962-19.987h-6c0 7.729-6.255 13.987-13.962 13.987v6Zm-19.962-19.987c0 11.034 8.933 19.987 19.962 19.987v-6c-7.707 0-13.962-6.258-13.962-13.987h-6Zm19.962-19.986c-11.029 0-19.962 8.952-19.962 19.986h6c0-7.728 6.255-13.986 13.962-13.986v-6Zm19.962 19.986c0-11.034-8.934-19.986-19.962-19.986v6c7.707 0 13.962 6.258 13.962 13.986h6Zm40.645 0c0 7.729-6.255 13.987-13.962 13.987v6c11.029 0 19.962-8.953 19.962-19.987h-6Zm-13.962-13.986c7.707 0 13.962 6.258 13.962 13.986h6c0-11.034-8.933-19.986-19.962-19.986v6Zm-13.962 13.986c0-7.728 6.255-13.986 13.962-13.986v-6c-11.029 0-19.962 8.952-19.962 19.986h6Zm13.962 13.987c-7.707 0-13.962-6.258-13.962-13.987h-6c0 11.034 8.933 19.987 19.962 19.987v-6Zm46.646 6c11.028 0 19.962-8.953 19.962-19.987h-6c0 7.729-6.255 13.987-13.962 13.987v6Zm-19.962-19.987c0 11.034 8.933 19.987 19.962 19.987v-6c-7.707 0-13.962-6.258-13.962-13.987h-6Zm19.962-19.986c-11.029 0-19.962 8.952-19.962 19.986h6c0-7.728 6.255-13.986 13.962-13.986v-6Zm19.962 19.986c0-11.034-8.934-19.986-19.962-19.986v6c7.707 0 13.962 6.258 13.962 13.986h6Z" mask="url(#c)"/><defs><filter id="a" width="335" height="320" x="0" y="0" color-interpolation-filters="sRGB" filterUnits="userSpaceOnUse"><feFlood flood-opacity="0" result="BackgroundImageFix"/><feColorMatrix in="SourceAlpha" result="hardAlpha" values="0 0 0 0 0 0 0 0 0 0 0 0 0 0 0 0 0 0 127 0"/><feOffset dy="10"/><feColorMatrix values="0 0 0 0 0 0 0 0 0 0 0 0 0 0 0 0 0 0 1 0"/><feBlend in2="BackgroundImageFix" result="effect1_dropShadow_5_3124"/><feBlend in="SourceGraphic" in2="effect1_dropShadow_5_3124" result="shape"/></filter></defs></svg>